<?xml version="1.0" encoding="utf-8"?>
<svg viewBox="-66.564 -106.229 554.024 538.498" xmlns="http://www.w3.org/2000/svg">
  <defs>
    <clipPath id="clip1">
      <rect x="0" y="0" width="557" height="541"/>
    </clipPath>
    <mask id="mask0">
      <g filter="url(#alpha)">
        <rect x="0" y="0" width="1440" height="809.999993" style="fill:rgb(0%,0%,0%);fill-opacity:0.2;stroke:none;"/>
      </g>
    </mask>
    <filter id="alpha" filterUnits="objectBoundingBox" x="0%" y="0%" width="100%" height="100%">
      <feColorMatrix type="matrix" in="SourceGraphic" values="0 0 0 0 1 0 0 0 0 1 0 0 0 0 1 0 0 0 1 0"/>
    </filter>
    <clipPath id="clip2">
      <path d="M 1.863281 240 L 24 240 L 24 262 L 1.863281 262 Z M 1.863281 240 "/>
    </clipPath>
    <clipPath id="clip3">
      <path d="M 242 0.925781 L 265 0.925781 L 265 23 L 242 23 Z M 242 0.925781 "/>
    </clipPath>
    <clipPath id="clip4">
      <path d="M 270 518 L 293 518 L 293 539.425781 L 270 539.425781 Z M 270 518 "/>
    </clipPath>
  </defs>
  <g id="surface1" transform="matrix(1, 0, 0, 1, -509.536469, -242.158813)">
    <g clip-path="url(#clip1)" transform="matrix(1, 0, 0, 1, 441, 135)" mask="url(#mask0)">
      <path style=" stroke:none;fill-rule:nonzero;fill:rgb(98.81897%,100%,100%);fill-opacity:1;" d="M 512.605469 204.800781 C 514.648438 218.816406 536.367188 215.632812 534.308594 201.605469 C 532.25 187.589844 510.53125 190.773438 512.605469 204.800781 "/>
      <path style=" stroke:none;fill-rule:nonzero;fill:rgb(98.81897%,100%,100%);fill-opacity:1;" d="M 468.488281 280.320312 C 470.550781 294.351562 492.269531 291.152344 490.222656 277.140625 C 488.160156 263.113281 466.441406 266.320312 468.488281 280.320312 "/>
      <path style=" stroke:none;fill-rule:nonzero;fill:rgb(98.81897%,100%,100%);fill-opacity:1;" d="M 444.65625 235.5 C 446.714844 249.527344 468.433594 246.316406 466.375 232.304688 C 464.3125 218.289062 442.59375 221.484375 444.65625 235.5 "/>
      <path style=" stroke:none;fill-rule:nonzero;fill:rgb(98.81897%,100%,100%);fill-opacity:1;" d="M 500.671875 241.074219 C 502.71875 255.089844 524.453125 251.890625 522.390625 237.878906 C 520.332031 223.851562 498.613281 227.058594 500.671875 241.074219 "/>
      <path style=" stroke:none;fill-rule:nonzero;fill:rgb(98.81897%,100%,100%);fill-opacity:1;" d="M 389.9375 191.769531 C 391.996094 205.796875 413.714844 202.613281 411.667969 188.574219 C 409.597656 174.558594 387.878906 177.753906 389.9375 191.769531 "/>
      <path style=" stroke:none;fill-rule:nonzero;fill:rgb(98.81897%,100%,100%);fill-opacity:1;" d="M 345.351562 263.929688 C 347.398438 277.929688 369.117188 274.746094 367.058594 260.734375 C 365.011719 246.703125 343.277344 249.914062 345.351562 263.929688 "/>
      <path style=" stroke:none;fill-rule:nonzero;fill:rgb(98.81897%,100%,100%);fill-opacity:1;" d="M 381.585938 275.851562 C 383.648438 289.867188 405.378906 286.671875 403.320312 272.65625 C 401.261719 258.644531 379.542969 261.839844 381.585938 275.851562 "/>
      <path style=" stroke:none;fill-rule:nonzero;fill:rgb(98.81897%,100%,100%);fill-opacity:1;" d="M 420.324219 304.683594 C 422.382812 318.699219 444.101562 315.503906 442.054688 301.488281 C 439.984375 287.460938 418.265625 290.65625 420.324219 304.683594 "/>
      <path style=" stroke:none;fill-rule:nonzero;fill:rgb(98.81897%,100%,100%);fill-opacity:1;" d="M 431.644531 358.25 C 433.707031 372.25 455.425781 369.070312 453.363281 355.054688 C 451.304688 341.027344 429.585938 344.238281 431.644531 358.25 "/>
      <path style=" stroke:none;fill-rule:nonzero;fill:rgb(98.81897%,100%,100%);fill-opacity:1;" d="M 365.398438 330.027344 C 367.457031 344.027344 389.191406 340.832031 387.117188 326.820312 C 385.058594 312.792969 363.339844 316 365.398438 330.027344 "/>
      <path style=" stroke:none;fill-rule:nonzero;fill:rgb(98.81897%,100%,100%);fill-opacity:1;" d="M 309.878906 327.828125 C 311.9375 341.84375 333.671875 338.648438 331.609375 324.632812 C 329.550781 310.617188 307.820312 313.800781 309.878906 327.828125 "/>
      <path style=" stroke:none;fill-rule:nonzero;fill:rgb(98.81897%,100%,100%);fill-opacity:1;" d="M 294.089844 243.839844 C 296.152344 257.867188 317.871094 254.660156 315.824219 240.644531 C 313.761719 226.632812 292.042969 229.828125 294.089844 243.839844 "/>
      <path style=" stroke:none;fill-rule:nonzero;fill:rgb(98.81897%,100%,100%);fill-opacity:1;" d="M 306.710938 141.882812 C 308.773438 155.910156 330.503906 152.699219 328.445312 138.679688 C 326.371094 124.671875 304.667969 127.871094 306.710938 141.882812 "/>
      <path style=" stroke:none;fill-rule:nonzero;fill:rgb(98.81897%,100%,100%);fill-opacity:1;" d="M 380.011719 124.195312 C 382.070312 138.21875 403.789062 135.019531 401.730469 121.003906 C 399.667969 106.984375 377.953125 110.179688 380.011719 124.195312 "/>
      <path style=" stroke:none;fill-rule:nonzero;fill:rgb(98.81897%,100%,100%);fill-opacity:1;" d="M 436.015625 129.761719 C 438.074219 143.777344 459.808594 140.582031 457.746094 126.566406 C 455.671875 112.550781 433.96875 115.75 436.015625 129.761719 "/>
      <path style=" stroke:none;fill-rule:nonzero;fill:rgb(98.81897%,100%,100%);fill-opacity:1;" d="M 442.96875 177.0625 C 445.027344 191.089844 466.761719 187.894531 464.703125 173.867188 C 462.640625 159.851562 440.910156 163.046875 442.96875 177.0625 "/>
      <path style=" stroke:none;fill-rule:nonzero;fill:rgb(98.81897%,100%,100%);fill-opacity:1;" d="M 498.296875 130.957031 C 500.355469 144.96875 522.074219 141.773438 520.015625 127.761719 C 517.953125 113.746094 496.234375 116.941406 498.296875 130.957031 "/>
      <path style=" stroke:none;fill-rule:nonzero;fill:rgb(98.81897%,100%,100%);fill-opacity:1;" d="M 461.839844 70.734375 C 463.914062 84.753906 485.617188 81.550781 483.570312 67.535156 C 481.5 53.515625 459.78125 56.710938 461.839844 70.734375 "/>
      <path style=" stroke:none;fill-rule:nonzero;fill:rgb(98.81897%,100%,100%);fill-opacity:1;" d="M 534.144531 281.015625 C 536.203125 295.042969 557.921875 291.859375 555.859375 277.816406 C 553.800781 263.804688 532.082031 267.011719 534.144531 281.015625 "/>
      <path style=" stroke:none;fill-rule:nonzero;fill:rgb(98.81897%,100%,100%);fill-opacity:1;" d="M 531.058594 353.976562 C 533.121094 367.988281 554.839844 364.808594 552.777344 350.78125 C 550.71875 336.753906 529.011719 339.949219 531.058594 353.976562 "/>
      <path style=" stroke:none;fill-rule:nonzero;fill:rgb(98.81897%,100%,100%);fill-opacity:1;" d="M 490.734375 408.246094 C 492.792969 422.246094 514.523438 419.050781 512.453125 405.050781 C 510.40625 391.023438 488.671875 394.21875 490.734375 408.246094 "/>
      <path style=" stroke:none;fill-rule:nonzero;fill:rgb(98.81897%,100%,100%);fill-opacity:1;" d="M 479.8125 333.886719 C 481.859375 347.917969 503.589844 344.71875 501.542969 330.691406 C 499.484375 316.691406 477.75 319.875 479.8125 333.886719 "/>
      <path style=" stroke:none;fill-rule:nonzero;fill:rgb(98.81897%,100%,100%);fill-opacity:1;" d="M 438.394531 474.609375 C 440.453125 488.640625 462.171875 485.441406 460.113281 471.414062 C 458.050781 457.414062 436.332031 460.609375 438.394531 474.609375 "/>
      <path style=" stroke:none;fill-rule:nonzero;fill:rgb(98.81897%,100%,100%);fill-opacity:1;" d="M 452.703125 431.101562 C 454.761719 445.101562 476.480469 441.921875 474.421875 427.90625 C 472.359375 413.878906 450.640625 417.074219 452.703125 431.101562 "/>
      <path style=" stroke:none;fill-rule:nonzero;fill:rgb(98.81897%,100%,100%);fill-opacity:1;" d="M 404.828125 410.515625 C 406.886719 424.53125 428.605469 421.335938 426.558594 407.320312 C 424.484375 393.308594 402.765625 396.503906 404.828125 410.515625 "/>
      <path style=" stroke:none;fill-rule:nonzero;fill:rgb(98.81897%,100%,100%);fill-opacity:1;" d="M 323.289062 419.066406 C 325.347656 433.082031 347.066406 429.882812 345.007812 415.871094 C 342.945312 401.855469 321.230469 405.050781 323.289062 419.066406 "/>
      <path style=" stroke:none;fill-rule:nonzero;fill:rgb(98.81897%,100%,100%);fill-opacity:1;" d="M 314.839844 478.996094 C 316.902344 493.011719 338.632812 489.816406 336.558594 475.800781 C 334.5 461.773438 312.78125 464.96875 314.839844 478.996094 "/>
      <path style=" stroke:none;fill-rule:nonzero;fill:rgb(98.81897%,100%,100%);fill-opacity:1;" d="M 264.089844 462.296875 C 266.152344 476.3125 287.871094 473.117188 285.808594 459.101562 C 283.765625 445.074219 262.03125 448.269531 264.089844 462.296875 "/>
      <path style=" stroke:none;fill-rule:nonzero;fill:rgb(98.81897%,100%,100%);fill-opacity:1;" d="M 244.433594 375.417969 C 246.492188 389.445312 268.226562 386.25 266.152344 372.222656 C 264.105469 358.210938 242.371094 361.40625 244.433594 375.417969 "/>
      <path style=" stroke:none;fill-rule:nonzero;fill:rgb(98.81897%,100%,100%);fill-opacity:1;" d="M 186.039062 377.121094 C 188.082031 391.132812 209.816406 387.9375 207.753906 373.925781 C 205.695312 359.898438 183.964844 363.09375 186.039062 377.121094 "/>
      <path style=" stroke:none;fill-rule:nonzero;fill:rgb(98.81897%,100%,100%);fill-opacity:1;" d="M 101.71875 296.3125 C 103.777344 310.328125 125.496094 307.132812 123.441406 293.117188 C 121.378906 279.105469 99.65625 282.300781 101.71875 296.3125 "/>
      <path style=" stroke:none;fill-rule:nonzero;fill:rgb(98.81897%,100%,100%);fill-opacity:1;" d="M 73.410156 338.441406 C 75.472656 352.46875 97.199219 349.273438 95.136719 335.246094 C 93.078125 321.242188 71.351562 324.441406 73.410156 338.441406 "/>
      <path style=" stroke:none;fill-rule:nonzero;fill:rgb(98.81897%,100%,100%);fill-opacity:1;" d="M 33.289062 323.636719 C 35.347656 337.652344 57.070312 334.457031 55.011719 320.441406 C 52.953125 306.425781 31.234375 309.621094 33.289062 323.636719 "/>
      <g clip-path="url(#clip2)" clip-rule="nonzero">
        <path style=" stroke:none;fill-rule:nonzero;fill:rgb(98.81897%,100%,100%);fill-opacity:1;" d="M 2.109375 252.292969 C 4.167969 266.308594 25.894531 263.113281 23.835938 249.085938 C 21.773438 235.070312 0.0585938 238.25 2.109375 252.292969 "/>
      </g>
      <path style=" stroke:none;fill-rule:nonzero;fill:rgb(98.81897%,100%,100%);fill-opacity:1;" d="M 38.058594 191.753906 C 40.125 205.769531 61.84375 202.574219 59.777344 188.558594 C 57.734375 174.546875 36.003906 177.742188 38.058594 191.753906 "/>
      <path style=" stroke:none;fill-rule:nonzero;fill:rgb(98.81897%,100%,100%);fill-opacity:1;" d="M 33.992188 257.953125 C 36.050781 271.953125 57.769531 268.769531 55.714844 254.757812 C 53.660156 240.726562 31.929688 243.9375 33.992188 257.953125 "/>
      <path style=" stroke:none;fill-rule:nonzero;fill:rgb(98.81897%,100%,100%);fill-opacity:1;" d="M 83.347656 171.28125 C 85.40625 185.292969 107.128906 182.113281 105.078125 168.097656 C 103.019531 154.070312 81.285156 157.28125 83.347656 171.28125 "/>
      <path style=" stroke:none;fill-rule:nonzero;fill:rgb(98.81897%,100%,100%);fill-opacity:1;" d="M 130.328125 209.253906 C 132.390625 223.269531 154.101562 220.085938 152.054688 206.058594 C 149.996094 192.046875 128.269531 195.242188 130.328125 209.253906 "/>
      <path style=" stroke:none;fill-rule:nonzero;fill:rgb(98.81897%,100%,100%);fill-opacity:1;" d="M 176.414062 264.621094 C 178.460938 278.632812 200.195312 275.4375 198.132812 261.425781 C 196.058594 247.394531 174.355469 250.59375 176.414062 264.621094 "/>
      <path style=" stroke:none;fill-rule:nonzero;fill:rgb(98.81897%,100%,100%);fill-opacity:1;" d="M 219.714844 113.257812 C 221.773438 127.269531 243.507812 124.082031 241.433594 110.058594 C 239.371094 96.039062 217.667969 99.234375 219.714844 113.257812 "/>
      <path style=" stroke:none;fill-rule:nonzero;fill:rgb(98.81897%,100%,100%);fill-opacity:1;" d="M 163.101562 80.15625 C 165.175781 94.175781 186.878906 90.984375 184.835938 76.964844 C 182.761719 62.941406 161.054688 66.140625 163.101562 80.15625 "/>
      <g clip-path="url(#clip3)" clip-rule="nonzero">
        <path style=" stroke:none;fill-rule:nonzero;fill:rgb(98.81897%,100%,100%);fill-opacity:1;" d="M 242.96875 13.179688 C 245.011719 27.199219 266.746094 24.003906 264.671875 9.980469 C 262.625 -4.035156 240.894531 -0.84375 242.96875 13.179688 "/>
      </g>
      <path style=" stroke:none;fill-rule:nonzero;fill:rgb(98.81897%,100%,100%);fill-opacity:1;" d="M 282.089844 21.226562 C 284.152344 35.246094 305.871094 32.050781 303.808594 18.027344 C 301.75 4.011719 280.03125 7.203125 282.089844 21.226562 "/>
      <path style=" stroke:none;fill-rule:nonzero;fill:rgb(98.81897%,100%,100%);fill-opacity:1;" d="M 359.054688 75.496094 C 361.113281 89.511719 382.84375 86.320312 380.785156 72.300781 C 378.710938 58.28125 356.992188 61.480469 359.054688 75.496094 "/>
      <path style=" stroke:none;fill-rule:nonzero;fill:rgb(98.81897%,100%,100%);fill-opacity:1;" d="M 395.605469 42.496094 C 397.652344 56.515625 419.382812 53.316406 417.335938 39.296875 C 415.265625 25.285156 393.546875 28.484375 395.605469 42.496094 "/>
      <path style=" stroke:none;fill-rule:nonzero;fill:rgb(98.81897%,100%,100%);fill-opacity:1;" d="M 236.996094 324.742188 C 239.039062 338.773438 260.773438 335.5625 258.699219 321.546875 C 256.640625 307.519531 234.921875 310.730469 236.996094 324.742188 "/>
      <path style=" stroke:none;fill-rule:nonzero;fill:rgb(98.81897%,100%,100%);fill-opacity:1;" d="M 212.457031 228.234375 C 214.515625 242.265625 236.234375 239.054688 234.1875 225.039062 C 232.128906 211.027344 210.410156 214.222656 212.457031 228.234375 "/>
      <path style=" stroke:none;fill-rule:nonzero;fill:rgb(98.81897%,100%,100%);fill-opacity:1;" d="M 238.875 196.734375 C 240.933594 210.761719 262.652344 207.554688 260.59375 193.527344 C 258.546875 179.511719 236.828125 182.722656 238.875 196.734375 "/>
      <path style=" stroke:none;fill-rule:nonzero;fill:rgb(98.81897%,100%,100%);fill-opacity:1;" d="M 186.644531 169.898438 C 188.707031 183.925781 210.4375 180.730469 208.363281 166.714844 C 206.304688 152.6875 184.585938 155.882812 186.644531 169.898438 "/>
      <path style=" stroke:none;fill-rule:nonzero;fill:rgb(98.81897%,100%,100%);fill-opacity:1;" d="M 300.5625 170.394531 C 302.605469 184.421875 324.339844 181.226562 322.28125 167.210938 C 320.21875 153.199219 298.5 156.394531 300.5625 170.394531 "/>
      <path style=" stroke:none;fill-rule:nonzero;fill:rgb(98.81897%,100%,100%);fill-opacity:1;" d="M 259.140625 76.386719 C 261.203125 90.410156 282.921875 87.210938 280.859375 73.191406 C 278.816406 59.167969 257.082031 62.367188 259.140625 76.386719 "/>
      <path style=" stroke:none;fill-rule:nonzero;fill:rgb(98.81897%,100%,100%);fill-opacity:1;" d="M 110.5625 98.234375 C 112.625 112.257812 134.351562 109.058594 132.289062 95.039062 C 130.230469 81.027344 108.507812 84.222656 110.5625 98.234375 "/>
      <path style=" stroke:none;fill-rule:nonzero;fill:rgb(98.81897%,100%,100%);fill-opacity:1;" d="M 126.640625 372.042969 C 128.699219 386.058594 150.425781 382.863281 148.363281 368.847656 C 146.304688 354.820312 124.585938 358.015625 126.640625 372.042969 "/>
      <path style=" stroke:none;fill-rule:nonzero;fill:rgb(98.81897%,100%,100%);fill-opacity:1;" d="M 123.5625 444.992188 C 125.621094 459.019531 147.34375 455.824219 145.28125 441.796875 C 143.222656 427.78125 121.5 430.976562 123.5625 444.992188 "/>
      <path style=" stroke:none;fill-rule:nonzero;fill:rgb(98.81897%,100%,100%);fill-opacity:1;" d="M 170.84375 438.03125 C 172.902344 452.046875 194.621094 448.863281 192.5625 434.835938 C 190.515625 420.824219 168.785156 424.019531 170.84375 438.03125 "/>
      <path style=" stroke:none;fill-rule:nonzero;fill:rgb(98.81897%,100%,100%);fill-opacity:1;" d="M 180.273438 502.25 C 182.332031 516.265625 204.066406 513.070312 202.003906 499.042969 C 199.929688 485.027344 178.210938 488.222656 180.273438 502.25 "/>
      <path style=" stroke:none;fill-rule:nonzero;fill:rgb(98.81897%,100%,100%);fill-opacity:1;" d="M 92.867188 494.378906 C 94.929688 508.40625 116.65625 505.210938 114.59375 491.183594 C 112.535156 477.183594 90.808594 480.367188 92.867188 494.378906 "/>
      <path style=" stroke:none;fill-rule:nonzero;fill:rgb(98.81897%,100%,100%);fill-opacity:1;" d="M 56.523438 458.3125 C 58.585938 472.34375 80.300781 469.144531 78.25 455.105469 C 76.179688 441.105469 54.464844 444.300781 56.523438 458.3125 "/>
      <path style=" stroke:none;fill-rule:nonzero;fill:rgb(98.81897%,100%,100%);fill-opacity:1;" d="M 24.347656 380.191406 C 26.40625 394.207031 48.125 391.011719 46.074219 376.996094 C 44.015625 362.96875 22.289062 366.175781 24.347656 380.191406 "/>
      <path style=" stroke:none;fill-rule:nonzero;fill:rgb(98.81897%,100%,100%);fill-opacity:1;" d="M 98.234375 390.027344 C 100.292969 404.042969 122.019531 400.859375 119.960938 386.832031 C 117.898438 372.816406 96.183594 376.015625 98.234375 390.027344 "/>
      <path style=" stroke:none;fill-rule:nonzero;fill:rgb(98.81897%,100%,100%);fill-opacity:1;" d="M 400.84375 500.855469 C 402.890625 514.882812 424.625 511.6875 422.5625 497.660156 C 420.515625 483.644531 398.785156 486.839844 400.84375 500.855469 "/>
      <g clip-path="url(#clip4)" clip-rule="nonzero">
        <path style=" stroke:none;fill-rule:nonzero;fill:rgb(98.81897%,100%,100%);fill-opacity:1;" d="M 270.644531 530.363281 C 272.703125 544.40625 294.4375 541.195312 292.363281 527.167969 C 290.304688 513.167969 268.597656 516.363281 270.644531 530.363281 "/>
      </g>
      <path style=" stroke:none;fill-rule:nonzero;fill:rgb(98.81897%,100%,100%);fill-opacity:1;" d="M 177.398438 36.628906 C 179.46875 50.652344 201.1875 47.453125 199.128906 33.441406 C 197.070312 19.410156 175.351562 22.609375 177.398438 36.628906 "/>
      <path style=" stroke:none;fill-rule:nonzero;fill:rgb(98.81897%,100%,100%);fill-opacity:1;" d="M 310.792969 75.695312 C 312.835938 89.714844 334.570312 86.511719 332.507812 72.496094 C 330.464844 58.472656 308.71875 61.671875 310.792969 75.695312 "/>
      <path style=" stroke:none;fill-rule:nonzero;fill:rgb(98.81897%,100%,100%);fill-opacity:1;" d="M 360.035156 434.367188 C 362.082031 448.382812 383.8125 445.183594 381.753906 431.171875 C 379.707031 417.15625 357.976562 420.351562 360.035156 434.367188 "/>
      <path style=" stroke:none;fill-rule:nonzero;fill:rgb(98.81897%,100%,100%);fill-opacity:1;" d="M 178.089844 323.054688 C 180.148438 337.070312 201.867188 333.859375 199.820312 319.859375 C 197.761719 305.847656 176.042969 309.027344 178.089844 323.054688 "/>
      <path style=" stroke:none;fill-rule:nonzero;fill:rgb(98.81897%,100%,100%);fill-opacity:1;" d="M 256.445312 245.929688 C 258.507812 259.945312 280.238281 256.75 278.179688 242.734375 C 276.117188 228.71875 254.398438 231.914062 256.445312 245.929688 "/>
      <path style=" stroke:none;fill-rule:nonzero;fill:rgb(98.81897%,100%,100%);fill-opacity:1;" d="M 329.441406 507.925781 C 331.5 521.9375 353.21875 518.742188 351.160156 504.714844 C 349.097656 490.699219 327.378906 493.894531 329.441406 507.925781 "/>
      <path style=" stroke:none;fill-rule:nonzero;fill:rgb(98.81897%,100%,100%);fill-opacity:1;" d="M 226.652344 512.667969 C 228.699219 526.695312 250.433594 523.5 248.371094 509.488281 C 246.3125 495.472656 224.582031 498.667969 226.652344 512.667969 "/>
      <path style=" stroke:none;fill-rule:nonzero;fill:rgb(98.81897%,100%,100%);fill-opacity:1;" d="M 292.707031 375.238281 C 294.769531 389.238281 316.472656 386.042969 314.414062 372.03125 C 312.367188 358.015625 290.648438 361.210938 292.707031 375.238281 "/>
      <path style=" stroke:none;fill-rule:nonzero;fill:rgb(98.81897%,100%,100%);fill-opacity:1;" d="M 84.375 229.828125 C 85.917969 240.339844 102.210938 237.933594 100.671875 227.433594 C 99.121094 216.917969 82.832031 219.3125 84.375 229.828125 "/>
      <path style=" stroke:none;fill-rule:nonzero;fill:rgb(98.81897%,100%,100%);fill-opacity:1;" d="M 65.109375 122.191406 C 66.660156 132.703125 82.957031 130.308594 81.40625 119.792969 C 79.859375 109.273438 63.570312 111.675781 65.109375 122.191406 "/>
      <path style=" stroke:none;fill-rule:nonzero;fill:rgb(98.81897%,100%,100%);fill-opacity:1;" d="M 132.75 136.410156 C 134.296875 146.917969 150.589844 144.523438 149.042969 134.015625 C 147.492188 123.5 131.203125 125.890625 132.75 136.410156 "/>
      <path style=" stroke:none;fill-rule:nonzero;fill:rgb(98.81897%,100%,100%);fill-opacity:1;" d="M 349.457031 14.777344 C 351.007812 25.28125 367.292969 22.886719 365.757812 12.371094 C 364.210938 1.855469 347.910156 4.257812 349.457031 14.777344 "/>
      <path style=" stroke:none;fill-rule:nonzero;fill:rgb(98.81897%,100%,100%);fill-opacity:1;" d="M 351.242188 214.71875 C 352.777344 225.246094 369.074219 222.839844 367.527344 212.328125 C 365.980469 201.8125 349.695312 204.21875 351.242188 214.71875 "/>
      <path style=" stroke:none;fill-rule:nonzero;fill:rgb(98.81897%,100%,100%);fill-opacity:1;" d="M 345.078125 360.617188 C 346.625 371.144531 362.910156 368.738281 361.363281 358.222656 C 359.828125 347.722656 343.527344 350.101562 345.078125 360.617188 "/>
      <path style=" stroke:none;fill-rule:nonzero;fill:rgb(98.81897%,100%,100%);fill-opacity:1;" d="M 384.601562 465.273438 C 386.136719 475.785156 402.433594 473.394531 400.886719 462.878906 C 399.339844 452.367188 383.039062 454.757812 384.601562 465.273438 "/>
      <path style=" stroke:none;fill-rule:nonzero;fill:rgb(98.81897%,100%,100%);fill-opacity:1;" d="M 205.03125 464.082031 C 206.582031 474.597656 222.878906 472.203125 221.332031 461.675781 C 219.78125 451.175781 203.496094 453.570312 205.03125 464.082031 "/>
      <path style=" stroke:none;fill-rule:nonzero;fill:rgb(98.81897%,100%,100%);fill-opacity:1;" d="M 135.382812 506.566406 C 136.925781 517.082031 153.21875 514.6875 151.667969 504.175781 C 150.132812 493.648438 133.839844 496.054688 135.382812 506.566406 "/>
      <path style=" stroke:none;fill-rule:nonzero;fill:rgb(98.81897%,100%,100%);fill-opacity:1;" d="M 280.128906 294.226562 C 281.664062 304.753906 297.976562 302.347656 296.414062 291.832031 C 294.878906 281.316406 278.578125 283.726562 280.128906 294.226562 "/>
      <path style=" stroke:none;fill-rule:nonzero;fill:rgb(98.81897%,100%,100%);fill-opacity:1;" d="M 230.371094 284.292969 C 231.90625 294.804688 248.207031 292.398438 246.660156 281.898438 C 245.125 271.386719 228.824219 273.777344 230.371094 284.292969 "/>
      <path style=" stroke:none;fill-rule:nonzero;fill:rgb(98.81897%,100%,100%);fill-opacity:1;" d="M 260.664062 138.304688 C 262.210938 148.8125 278.496094 146.417969 276.960938 135.90625 C 275.414062 125.390625 259.113281 127.789062 260.664062 138.304688 "/>
      <path style=" stroke:none;fill-rule:nonzero;fill:rgb(98.81897%,100%,100%);fill-opacity:1;" d="M 217.863281 58.292969 C 219.410156 68.808594 235.695312 66.410156 234.160156 55.898438 C 232.613281 45.390625 216.3125 47.78125 217.863281 58.292969 "/>
    </g>
  </g>
</svg>